<?xml version="1.0" encoding="UTF-8" standalone="no"?>
<!-- Created with Inkscape (http://www.inkscape.org/) -->

<svg
   version="1.1"
   id="svg2"
   width="666.66669"
   height="666.66669"
   viewBox="0 0 666.66669 666.66669"
   sodipodi:docname="svg_welcome_screen.svg"
   inkscape:version="1.2 (dc2aedaf03, 2022-05-15)"
   xmlns:inkscape="http://www.inkscape.org/namespaces/inkscape"
   xmlns:sodipodi="http://sodipodi.sourceforge.net/DTD/sodipodi-0.dtd"
   xmlns="http://www.w3.org/2000/svg"
   xmlns:svg="http://www.w3.org/2000/svg">
  <defs
     id="defs6">
    <clipPath
       clipPathUnits="userSpaceOnUse"
       id="clipPath20">
      <path
         d="M 0,500 H 500 V 0 H 0 Z"
         id="path18" />
    </clipPath>
    <clipPath
       clipPathUnits="userSpaceOnUse"
       id="clipPath84">
      <path
         d="m 244.39,253.011 c -5.615,-2.049 -0.989,-16.115 5.078,-14.441 v 0 c 6.067,1.675 13.081,6.2 10.838,11.507 v 0 c -1.354,3.202 -4.243,4.566 -7.907,4.566 v 0 c -2.407,0 -5.149,-0.589 -8.009,-1.632"
         id="path82" />
    </clipPath>
    <clipPath
       clipPathUnits="userSpaceOnUse"
       id="clipPath92">
      <path
         d="M -32768,32767 H 32767 V -32768 H -32768 Z"
         id="path90" />
    </clipPath>
    <linearGradient
       x1="0"
       y1="0"
       x2="1"
       y2="0"
       gradientUnits="userSpaceOnUse"
       gradientTransform="matrix(-12.756087,-6.2336879,-6.2336879,12.756087,259.51862,251.71558)"
       spreadMethod="pad"
       id="linearGradient98">
      <stop
         style="stop-opacity:1;stop-color:#ffffff"
         offset="0"
         id="stop94" />
      <stop
         style="stop-opacity:0;stop-color:#ffffff"
         offset="1"
         id="stop96" />
    </linearGradient>
    <mask
       maskUnits="userSpaceOnUse"
       x="0"
       y="0"
       width="1"
       height="1"
       id="mask100">
      <g
         id="g110">
        <g
           clip-path="url(#clipPath92)"
           id="g108">
          <g
             id="g106">
            <g
               id="g104">
              <path
                 d="M -32768,32767 H 32767 V -32768 H -32768 Z"
                 style="fill:url(#linearGradient98);stroke:none"
                 id="path102" />
            </g>
          </g>
        </g>
      </g>
    </mask>
    <linearGradient
       x1="0"
       y1="0"
       x2="1"
       y2="0"
       gradientUnits="userSpaceOnUse"
       gradientTransform="matrix(-12.756087,-6.2336879,-6.2336879,12.756087,259.51862,251.71558)"
       spreadMethod="pad"
       id="linearGradient120">
      <stop
         style="stop-opacity:1;stop-color:#d18078"
         offset="0"
         id="stop116" />
      <stop
         style="stop-opacity:1;stop-color:#f6b9ad"
         offset="1"
         id="stop118" />
    </linearGradient>
    <clipPath
       clipPathUnits="userSpaceOnUse"
       id="clipPath130">
      <path
         d="M 0,500 H 500 V 0 H 0 Z"
         id="path128" />
    </clipPath>
    <clipPath
       clipPathUnits="userSpaceOnUse"
       id="clipPath146">
      <path
         d="m 217.074,264.181 c 0,0 -0.746,-17.885 13.431,-14.48 v 0 c 14.177,3.402 9.014,17.939 7.548,22.938 v 0 c -6.458,-1.677 -20.979,-8.458 -20.979,-8.458"
         id="path144" />
    </clipPath>
    <clipPath
       clipPathUnits="userSpaceOnUse"
       id="clipPath154">
      <path
         d="M -32768,32767 H 32767 V -32768 H -32768 Z"
         id="path152" />
    </clipPath>
    <linearGradient
       x1="0"
       y1="0"
       x2="1"
       y2="0"
       gradientUnits="userSpaceOnUse"
       gradientTransform="matrix(3.2554214,-17.394869,-17.394869,-3.2554214,227.23618,270.04581)"
       spreadMethod="pad"
       id="linearGradient160">
      <stop
         style="stop-opacity:1;stop-color:#ffffff"
         offset="0"
         id="stop156" />
      <stop
         style="stop-opacity:0;stop-color:#ffffff"
         offset="1"
         id="stop158" />
    </linearGradient>
    <mask
       maskUnits="userSpaceOnUse"
       x="0"
       y="0"
       width="1"
       height="1"
       id="mask162">
      <g
         id="g172">
        <g
           clip-path="url(#clipPath154)"
           id="g170">
          <g
             id="g168">
            <g
               id="g166">
              <path
                 d="M -32768,32767 H 32767 V -32768 H -32768 Z"
                 style="fill:url(#linearGradient160);stroke:none"
                 id="path164" />
            </g>
          </g>
        </g>
      </g>
    </mask>
    <linearGradient
       x1="0"
       y1="0"
       x2="1"
       y2="0"
       gradientUnits="userSpaceOnUse"
       gradientTransform="matrix(3.2554214,-17.394869,-17.394869,-3.2554214,227.23618,270.04581)"
       spreadMethod="pad"
       id="linearGradient182">
      <stop
         style="stop-opacity:1;stop-color:#d89a68"
         offset="0"
         id="stop178" />
      <stop
         style="stop-opacity:1;stop-color:#d89a68"
         offset="1"
         id="stop180" />
    </linearGradient>
    <clipPath
       clipPathUnits="userSpaceOnUse"
       id="clipPath192">
      <path
         d="M 0,500 H 500 V 0 H 0 Z"
         id="path190" />
    </clipPath>
    <clipPath
       clipPathUnits="userSpaceOnUse"
       id="clipPath208">
      <path
         d="m 254.2,275.119 c 0.102,-5.208 -0.46,-20.624 14.085,-19.616 v 0 c 14.544,1.008 8.465,17.845 8.465,17.845 v 0 c 0,0 -13.616,1.808 -20.924,1.808 v 0 c -0.586,0 -1.131,-0.012 -1.626,-0.037"
         id="path206" />
    </clipPath>
    <clipPath
       clipPathUnits="userSpaceOnUse"
       id="clipPath216">
      <path
         d="M -32768,32767 H 32767 V -32768 H -32768 Z"
         id="path214" />
    </clipPath>
    <linearGradient
       x1="0"
       y1="0"
       x2="1"
       y2="0"
       gradientUnits="userSpaceOnUse"
       gradientTransform="matrix(2.1153023,-17.569996,17.569996,2.1153023,265.29575,275.89188)"
       spreadMethod="pad"
       id="linearGradient222">
      <stop
         style="stop-opacity:1;stop-color:#ffffff"
         offset="0"
         id="stop218" />
      <stop
         style="stop-opacity:0;stop-color:#ffffff"
         offset="1"
         id="stop220" />
    </linearGradient>
    <mask
       maskUnits="userSpaceOnUse"
       x="0"
       y="0"
       width="1"
       height="1"
       id="mask224">
      <g
         id="g234">
        <g
           clip-path="url(#clipPath216)"
           id="g232">
          <g
             id="g230">
            <g
               id="g228">
              <path
                 d="M -32768,32767 H 32767 V -32768 H -32768 Z"
                 style="fill:url(#linearGradient222);stroke:none"
                 id="path226" />
            </g>
          </g>
        </g>
      </g>
    </mask>
    <linearGradient
       x1="0"
       y1="0"
       x2="1"
       y2="0"
       gradientUnits="userSpaceOnUse"
       gradientTransform="matrix(2.1153023,-17.569996,17.569996,2.1153023,265.29575,275.89188)"
       spreadMethod="pad"
       id="linearGradient244">
      <stop
         style="stop-opacity:1;stop-color:#d89a68"
         offset="0"
         id="stop240" />
      <stop
         style="stop-opacity:1;stop-color:#d89a68"
         offset="1"
         id="stop242" />
    </linearGradient>
    <clipPath
       clipPathUnits="userSpaceOnUse"
       id="clipPath254">
      <path
         d="M 0,500 H 500 V 0 H 0 Z"
         id="path252" />
    </clipPath>
  </defs>
  <sodipodi:namedview
     id="namedview4"
     pagecolor="#505050"
     bordercolor="#eeeeee"
     borderopacity="1"
     inkscape:showpageshadow="0"
     inkscape:pageopacity="0"
     inkscape:pagecheckerboard="0"
     inkscape:deskcolor="#505050"
     showgrid="false"
     inkscape:zoom="0.77025"
     inkscape:cx="-608.24407"
     inkscape:cy="507.62739"
     inkscape:window-width="2560"
     inkscape:window-height="1377"
     inkscape:window-x="-8"
     inkscape:window-y="-8"
     inkscape:window-maximized="1"
     inkscape:current-layer="g16">
    <inkscape:page
       x="0"
       y="0"
       id="page8"
       width="666.66669"
       height="666.66669" />
  </sodipodi:namedview>
  <g
     id="g10"
     inkscape:groupmode="layer"
     inkscape:label="Page 1"
     transform="matrix(1.3333333,0,0,-1.3333333,0,666.66667)"
     style="display:inline">
    <path
       d="M 0,0 H 500 V 500 H 0 Z"
       style="display:inline;fill:#f2f3fe;fill-opacity:1;fill-rule:nonzero;stroke:none;stroke-width:0.99975;stroke-dasharray:none"
       id="path12" />
    <g
       id="g14"
       style="display:inline">
      <g
         id="g16"
         clip-path="url(#clipPath20)">
        <g
           id="g22"
           transform="translate(215.5234,58.3896)"
           style="fill:#e3e7ff;fill-opacity:1">
          <path
             d="m 0,0 c -120.534,-3.021 -196.709,95.497 -172.413,183.983 24.295,88.486 118.3,27.809 165.303,91.413 47.003,63.605 78.551,114.076 146.2,94.474 C 216.552,347.425 264.492,239.986 216.458,139.063 173.193,48.164 120.534,3.021 0,0"
             style="fill:#e3e7ff;fill-opacity:1;fill-rule:nonzero;stroke:none"
             id="path24" />
        </g>
        <g
           id="g26"
           transform="translate(373.5127,101.4092)">
          <path
             d="M 0,0 C -19.952,-23.735 -9.135,-29.229 10.23,-13.519 29.596,2.192 21.191,25.212 0,0"
             style="fill:#edf6ed;fill-opacity:1;fill-rule:nonzero;stroke:none"
             id="path28" />
        </g>
        <g
           id="g30"
           transform="translate(441.4727,364.1157)">
          <path
             d="M 0,0 C -0.556,-17.411 12.423,-43.845 21.191,-26.307 29.961,-8.769 1.096,34.345 0,0"
             style="fill:#edf6ed;fill-opacity:1;fill-rule:nonzero;stroke:none"
             id="path32" />
        </g>
        <g
           id="g34"
           transform="translate(96.5571,321.3667)">
          <path
             d="M 0,0 C -20.418,-6.005 -37.634,-27.038 0.365,-21.192 38.364,-15.346 43.479,12.788 0,0"
             style="fill:#edf6ed;fill-opacity:1;fill-rule:nonzero;stroke:none"
             id="path36" />
        </g>
        <g
           id="g38"
           transform="translate(376.6982,162.5166)">
          <path
             d="m 0,0 c 0,0 38.945,-2.695 48.205,-2.995 9.26,-0.299 19.337,-28.749 1.634,-31.744 -17.702,-2.995 -49.022,0 -49.022,0 z"
             style="fill:#f9c88c;fill-opacity:1;fill-rule:nonzero;stroke:none"
             id="path40" />
        </g>
        <g
           id="g42"
           transform="translate(312.4756,177.168)"
           inkscape:label="g42"
           style="fill:#8667f1;fill-opacity:1">
          <path
             d="m 0,0 c 0,0 16.337,-0.86 74.731,-10.707 4.189,-8.068 4.754,-29.689 1.768,-44.198 -5.773,0.419 -63.245,1.368 -67.283,2.124 0,0 -30.31,32.037 -9.216,52.781"
             style="fill:#8667f1;fill-opacity:1;fill-rule:nonzero;stroke:none"
             id="path44" />
        </g>
        <g
           id="g46"
           transform="translate(262.3682,167.4805)">
          <path
             d="M 0,0 C -19.785,0 -24.529,10.977 -25.212,14.409 -11.16,17.237 2.751,18.376 20.049,16.04 20.445,12.053 19.434,0 0,0"
             style="fill:#f9c88c;fill-opacity:1;fill-rule:nonzero;stroke:none"
             id="path48" />
        </g>
        <g
           id="g50"
           transform="translate(276.1504,192.2246)">
          <path
             d="m 0,0 -0.722,26.291 -33.424,-0.919 0.556,-20.22 0.722,-26.247 33.423,0.919 z"
             style="fill:#f9c88c;fill-opacity:1;fill-rule:nonzero;stroke:none"
             id="path52" />
        </g>
        <g
           id="g54"
           transform="translate(275.4287,218.5156)">
          <path
             d="m 0,0 -33.957,-0.533 0.556,-11.732 0.722,-20.95 c 12.342,-0.789 23.545,1.147 33.423,6.255 z"
             style="fill:#eda968;fill-opacity:1;fill-rule:nonzero;stroke:none"
             id="path56" />
        </g>
        <g
           id="g58"
           transform="translate(192.6445,167.1035)"
           inkscape:label="g58"
           style="fill:#ddd3ff;fill-opacity:1">
          <path
             d="m 0,0 c 0,0 19.043,10.397 42.229,15.449 1.004,0.221 1.996,0.428 2.98,0.625 0.684,-3.43 4.388,-13.928 24.176,-13.928 19.431,0 20.051,11.167 19.656,15.153 1.438,-0.195 2.901,-0.404 4.412,-0.642 10.554,-1.661 18.878,-3.658 33.009,-7.354 0,0 8.065,-28.396 6.6,-176.407 H 10.385 c 0,0 9.558,65.806 -0.261,105.486 0,0 -7.017,36.679 -10.124,61.618"
             style="fill:#ddd3ff;fill-opacity:1;fill-rule:nonzero;stroke:none"
             id="path60" />
        </g>
        <g
           id="g62"
           transform="translate(218.3071,243.3555)">
          <path
             d="m 0,0 c 4.375,-7.627 5.271,-13.879 0.337,-17.039 -4.929,-3.162 -16.842,-1.826 -21.216,5.802 -4.381,7.635 -3.926,16.38 1.008,19.542 C -14.941,11.464 -4.374,7.632 0,0"
             style="fill:#f9c88c;fill-opacity:1;fill-rule:nonzero;stroke:none"
             id="path64" />
        </g>
        <g
           id="g66"
           transform="translate(243.4897,215.9336)">
          <path
             d="M 0,0 C 0.59,0.288 1.286,0.59 2.018,0.911 1.784,1.524 1.633,1.954 1.611,2.115 Z"
             style="fill:#ffffff;fill-opacity:1;fill-rule:nonzero;stroke:none"
             id="path68" />
        </g>
        <g
           id="g70"
           transform="translate(206.7148,231.7227)">
          <path
             d="M 0,0 C 8.518,-27.113 31.176,-42.714 58.729,-35.957 83.796,-29.811 95.911,8.404 91.648,40.913 87.386,73.422 66.088,96.384 35.48,91.196 -11.397,83.251 -17.95,57.14 0,0"
             style="fill:#f9c88c;fill-opacity:1;fill-rule:nonzero;stroke:none"
             id="path72" />
        </g>
        <g
           id="g74"
           transform="translate(285.5322,256.3286)">
          <path
             d="m 0,0 c -1.991,-8.569 -1.047,-14.809 4.591,-16.417 5.628,-1.604 16.651,3.106 18.641,11.674 C 25.226,3.83 22.269,12.069 16.635,13.678 11.004,15.284 1.988,8.568 0,0"
             style="fill:#f9c88c;fill-opacity:1;fill-rule:nonzero;stroke:none"
             id="path76" />
        </g>
      </g>
    </g>
    <g
       id="g78"
       style="display:inline">
      <g
         id="g80"
         clip-path="url(#clipPath84)">
        <g
           id="g86">
          <g
             id="g88" />
          <g
             id="g112"
             mask="url(#mask100)">
            <g
               id="g114">
              <path
                 d="m 244.39,253.011 c -5.615,-2.049 -0.989,-16.115 5.078,-14.441 v 0 c 6.067,1.675 13.081,6.2 10.838,11.507 v 0 c -1.354,3.202 -4.243,4.566 -7.907,4.566 v 0 c -2.407,0 -5.149,-0.589 -8.009,-1.632"
                 style="fill:url(#linearGradient120);stroke:none"
                 id="path122" />
            </g>
          </g>
        </g>
      </g>
    </g>
    <g
       id="g124"
       style="display:inline">
      <g
         id="g126"
         clip-path="url(#clipPath130)">
        <g
           id="g132"
           transform="translate(241.2764,251.4663)">
          <path
             d="m 0,0 c 2.635,1.621 5.606,2.786 8.759,3.222 1.572,0.233 3.193,0.237 4.808,-0.017 1.6,-0.287 3.235,-0.844 4.586,-1.988 1.347,-1.125 2.173,-3.086 1.844,-4.853 -0.28,-1.765 -1.198,-3.231 -2.279,-4.416 -2.178,-2.393 -4.935,-3.983 -7.766,-5.209 2.481,1.834 4.943,3.715 6.741,6.053 0.872,1.167 1.59,2.46 1.706,3.773 0.18,1.303 -0.358,2.521 -1.365,3.372 -0.986,0.882 -2.361,1.39 -3.761,1.688 C 11.86,1.937 10.371,1.974 8.885,1.905 5.901,1.737 2.933,0.984 0,0"
             style="fill:#a56052;fill-opacity:1;fill-rule:nonzero;stroke:none"
             id="path134" />
        </g>
        <g
           id="g136"
           transform="translate(239.7949,223.8115)">
          <path
             d="m 0,0 c -0.208,-1.378 0.322,-2.684 0.923,-3.845 0.639,-1.162 1.477,-2.194 2.454,-3.051 1.952,-1.727 4.432,-2.747 7.022,-3.086 2.595,-0.38 5.284,-0.161 7.938,0.316 2.662,0.477 5.292,1.251 7.948,2.065 -2.364,-1.459 -4.931,-2.614 -7.65,-3.359 -1.353,-0.405 -2.758,-0.624 -4.174,-0.793 -1.423,-0.112 -2.866,-0.099 -4.304,0.088 -1.432,0.213 -2.853,0.615 -4.175,1.246 C 4.669,-9.774 3.447,-8.917 2.455,-7.845 1.441,-6.793 0.67,-5.529 0.164,-4.183 -0.066,-3.5 -0.244,-2.8 -0.3,-2.085 -0.356,-1.377 -0.306,-0.632 0,0"
             style="fill:#a56052;fill-opacity:1;fill-rule:nonzero;stroke:none"
             id="path138" />
        </g>
      </g>
    </g>
    <g
       id="g140"
       style="display:inline">
      <g
         id="g142"
         clip-path="url(#clipPath146)">
        <g
           id="g148">
          <g
             id="g150" />
          <g
             id="g174"
             mask="url(#mask162)">
            <g
               id="g176">
              <path
                 d="m 217.074,264.181 c 0,0 -0.746,-17.885 13.431,-14.48 v 0 c 14.177,3.402 9.014,17.939 7.548,22.938 v 0 c -6.458,-1.677 -20.979,-8.458 -20.979,-8.458"
                 style="fill:url(#linearGradient182);stroke:none"
                 id="path184" />
            </g>
          </g>
        </g>
      </g>
    </g>
    <g
       id="g186"
       style="display:inline">
      <g
         id="g188"
         clip-path="url(#clipPath192)">
        <g
           id="g194"
           transform="translate(236.3281,252.1138)">
          <path
             d="m 0,0 c -0.111,-1.09 -1.084,-1.883 -2.174,-1.772 -1.09,0.111 -1.883,1.085 -1.772,2.174 0.112,1.09 1.085,1.883 2.175,1.772 C -0.682,2.063 0.111,1.09 0,0"
             style="fill:#643619;fill-opacity:1;fill-rule:nonzero;stroke:none"
             id="path196" />
        </g>
        <g
           id="g198"
           transform="translate(234.8154,273.0786)">
          <path
             d="M 0,0 C -16.291,-3.674 -24.319,-11.607 -13.867,-9.917 -3.415,-8.226 10.743,2.424 0,0"
             style="fill:#964d1e;fill-opacity:1;fill-rule:nonzero;stroke:none"
             id="path200" />
        </g>
      </g>
    </g>
    <g
       id="g202"
       style="display:inline">
      <g
         id="g204"
         clip-path="url(#clipPath208)">
        <g
           id="g210">
          <g
             id="g212" />
          <g
             id="g236"
             mask="url(#mask224)">
            <g
               id="g238">
              <path
                 d="m 254.2,275.119 c 0.102,-5.208 -0.46,-20.624 14.085,-19.616 v 0 c 14.544,1.008 8.465,17.845 8.465,17.845 v 0 c 0,0 -13.616,1.808 -20.924,1.808 v 0 c -0.586,0 -1.131,-0.012 -1.626,-0.037"
                 style="fill:url(#linearGradient244);stroke:none"
                 id="path246" />
            </g>
          </g>
        </g>
      </g>
    </g>
    <g
       id="g248"
       style="display:inline">
      <g
         id="g250"
         clip-path="url(#clipPath254)">
        <g
           id="g256"
           transform="translate(262.0049,256.0576)">
          <path
             d="m 0,0 c 0.433,-1.006 1.6,-1.47 2.605,-1.038 1.006,0.434 1.471,1.6 1.038,2.606 C 3.21,2.574 2.043,3.039 1.037,2.605 0.031,2.173 -0.434,1.006 0,0"
             style="fill:#643619;fill-opacity:1;fill-rule:nonzero;stroke:none"
             id="path258" />
        </g>
        <g
           id="g260"
           transform="translate(257.1562,276.5103)">
          <path
             d="M 0,0 C 16.642,1.384 26.681,-3.773 16.203,-5.298 5.726,-6.822 -10.976,-0.912 0,0"
             style="fill:#964d1e;fill-opacity:1;fill-rule:nonzero;stroke:none"
             id="path262" />
        </g>
        <g
           id="g264"
           transform="translate(222.7578,244.5967)">
          <path
             d="m 0,0 c 0.17,-1.105 -2.56,-2.442 -6.098,-2.985 -3.537,-0.543 -6.542,-0.088 -6.712,1.017 -0.169,1.106 2.56,2.443 6.098,2.986 C -3.175,1.561 -0.17,1.105 0,0"
             style="fill:#f2a09b;fill-opacity:1;fill-rule:nonzero;stroke:none"
             id="path266" />
        </g>
        <g
           id="g268"
           transform="translate(290.2852,254.9692)">
          <path
             d="m 0,0 c 0.17,-1.105 -2.561,-2.442 -6.098,-2.985 -3.537,-0.544 -6.542,-0.088 -6.712,1.017 -0.169,1.106 2.561,2.442 6.098,2.986 C -3.175,1.561 -0.17,1.105 0,0"
             style="fill:#f2a09b;fill-opacity:1;fill-rule:nonzero;stroke:none"
             id="path270" />
        </g>
        <g
           id="g272"
           transform="translate(187.0537,283.8169)">
          <path
             d="m 0,0 c 1.807,-15.247 5.545,-25.647 8.171,-36.318 2.558,4.385 7.163,4.661 9.869,-2.31 0,0 -4.998,31.561 1.195,37.841 12.775,12.957 14.081,-0.381 32.932,7.27 12.542,5.089 28.677,19.76 44.655,1.35 4.794,-5.523 7.431,-22.349 11.361,-27.893 0.349,4.288 2.121,5.341 8.25,5.735 l 1.553,14.505 c 1.354,8.783 2.865,18.115 1.277,23.225 -1.047,-3.641 -2.999,-6.617 -2.999,-6.617 0,0 1.514,26.731 -17.55,39.327 0.944,-4.405 5.367,-12.291 5.367,-12.291 0,0 -24.21,32.148 -64.22,19.043 3.055,-9.434 21.037,-8.01 21.037,-8.01 0,0 -40.811,2.564 -54.453,-16.662 2.212,-3.943 10.842,0.863 10.842,0.863 0,0 -19.492,-7.277 -28.065,-24.654 2.354,0.362 8.026,1.768 8.026,1.768 0,0 -10.12,-9.048 -4.352,-30.914 C -3.1,-7.703 0,0 0,0"
             style="fill:#572c1a;fill-opacity:1;fill-rule:nonzero;stroke:none"
             id="path274" />
        </g>
        <g
           id="g276"
           transform="translate(211.3403,291.1562)">
          <path
             d="m 0,0 c 0,0 -5.988,-4.742 -3.385,-11.483 6.363,6.202 14.556,7.286 14.556,7.286 0,0 -3.756,-1.622 -7.422,-4.971 10.169,-1.574 29.084,5.686 29.084,5.686 0,0 -9.032,-4.697 -10.905,-7.248 16.453,2.875 23.484,12.664 23.484,12.664 0,0 -5.525,-4.855 -7.554,-8.65 C 50.646,-2.662 67.984,6.061 68.417,8.914 43.719,19.775 11.847,7.901 0,0"
             style="fill:#572c1a;fill-opacity:1;fill-rule:nonzero;stroke:none"
             id="path278" />
        </g>
        <g
           id="g280"
           transform="translate(276.6777,298.6997)">
          <path
             d="m 0,0 c -0.525,-1.775 3.863,-8.279 8.185,-14.993 0.937,2.337 -0.119,4.667 -0.119,4.667 0,0 3.362,-6.96 4.297,-11.103 2.227,4.329 -6.131,18.498 -6.131,18.498 z"
             style="fill:#572c1a;fill-opacity:1;fill-rule:nonzero;stroke:none"
             id="path282" />
        </g>
        <g
           id="g284"
           transform="translate(376.6934,227.4268)">
          <path
             d="m 0,0 c 16.664,-36.02 25.948,-71.309 35.107,-88.646 9.16,-17.338 42.372,-7.666 28.082,19.923 C 48.898,-41.134 31.258,-11.638 18.539,12.562 11.918,25.158 -7.977,12.9 0,0"
             style="fill:#f9c88c;fill-opacity:1;fill-rule:nonzero;stroke:none"
             id="path286" />
        </g>
        <g
           id="g288"
           transform="translate(361.6543,242.9482)">
          <path
             d="m 0,0 c -6.919,0.25 -11.767,-3.462 -12.407,-5.681 -0.642,-2.218 0.217,-3.514 2.456,-2.805 2.239,0.71 12.282,-0.588 16.625,-3.693 4.343,-3.103 16.993,-0.792 24.659,6.117 7.667,6.909 -3.716,21.818 -3.716,21.818 0,0 -20.481,-2.05 -29.577,-9.167 C -1.781,4.577 0,0 0,0"
             style="fill:#f9c88c;fill-opacity:1;fill-rule:nonzero;stroke:none"
             id="path290" />
        </g>
        <g
           id="g292"
           transform="translate(361.6543,242.9482)">
          <path
             d="m 0,0 c -3.643,5.408 -6.899,13.166 -2.973,16.186 3.927,3.02 15.361,8.685 22.111,8.959 6.75,0.273 15.649,-13.244 8.221,-19.503 C 19.931,-0.618 12.182,-8.667 6.285,1.539 3.571,0.857 0,0 0,0"
             style="fill:#f5b384;fill-opacity:1;fill-rule:nonzero;stroke:none"
             id="path294" />
        </g>
        <g
           id="g296"
           transform="translate(142.4883,128.2891)">
          <path
             d="m 0,0 c 0,0 -34.297,-18.646 -42.594,-22.769 -8.296,-4.123 -5.63,-34.187 11.715,-29.549 17.344,4.637 44.582,20.385 44.582,20.385 z"
             style="fill:#f9c88c;fill-opacity:1;fill-rule:nonzero;stroke:none"
             id="path298" />
        </g>
        <g
           id="g300"
           transform="translate(194.8027,168.3193)">
          <path
             d="m 0,0 c 0,0 -14.5,-7.574 -63.511,-40.813 1.112,-7.017 6.261,-29.782 15.01,-41.736 5.076,2.781 58.71,28.35 62.069,30.716 0,0 14.242,41.74 -13.568,51.833"
             style="fill:#8667f1;fill-opacity:1;fill-rule:nonzero;stroke:none"
             id="path302" />
        </g>
        <g
           id="g304"
           transform="translate(115.5005,187.3232)">
          <path
             d="m 0,0 c -0.176,-39.688 6.056,-75.641 4.936,-95.218 -1.121,-19.576 -35.348,-24.591 -33.824,6.443 1.524,31.032 5.301,65.193 6.805,92.49 C -21.3,17.924 1.89,15.05 0,0"
             style="fill:#f9c88c;fill-opacity:1;fill-rule:nonzero;stroke:none"
             id="path306" />
        </g>
        <g
           id="g308"
           transform="translate(122.7236,207.6924)">
          <path
             d="m 0,0 c 6.188,3.105 12.141,1.745 13.646,-0.006 1.506,-1.752 1.264,-3.287 -1.067,-3.573 -2.331,-0.286 -10.925,-5.643 -13.584,-10.272 -2.659,-4.628 -15.125,-7.787 -24.97,-4.691 -9.845,3.095 -5.693,21.388 -5.693,21.388 0,0 19.48,6.652 30.711,3.962 C -0.284,4.903 0,0 0,0"
             style="fill:#f9c88c;fill-opacity:1;fill-rule:nonzero;stroke:none"
             id="path310" />
        </g>
        <g
           id="g312"
           transform="translate(122.7236,207.6924)">
          <path
             d="m 0,0 c 1.063,6.434 0.8,14.843 -4.027,15.957 -4.827,1.113 -17.581,1.51 -23.833,-1.048 -6.253,-2.557 -8.725,-18.551 0.633,-21.155 9.358,-2.605 19.752,-6.701 20.872,5.033 C -3.604,-0.705 0,0 0,0"
             style="fill:#f5b384;fill-opacity:1;fill-rule:nonzero;stroke:none"
             id="path314" />
        </g>
        <g
           id="g316"
           transform="translate(387.207,166.4609)">
          <path
             d="m 0,0 c -3.239,0.546 -6.342,1.063 -9.326,1.556 2.161,-8.904 5.351,-27.491 0.216,-45.391 5.501,-0.143 9.552,-0.267 10.878,-0.363 C 4.754,-29.688 4.188,-8.068 0,0"
             style="fill:#8667f1;fill-opacity:1;fill-rule:nonzero;stroke:none"
             id="path318" />
        </g>
        <g
           id="g320"
           transform="translate(131.2915,127.5068)"
           style="fill:#8667f1;fill-opacity:1">
          <path
             d="m 0,0 c 1.112,-7.018 6.261,-29.782 15.01,-41.736 0.985,0.54 3.802,1.938 7.719,3.857 C 14.13,-22.948 9.537,-2.645 7.963,5.378 5.412,3.661 2.769,1.877 0,0"
             style="fill:#8667f1;fill-opacity:1;fill-rule:nonzero;stroke:none"
             id="path322" />
        </g>
        <g
           id="g324"
           transform="translate(296.4863,146.4365)"
           style="fill:#8667f1;fill-opacity:1">
          <path
             d="m 0,0 c -4.793,-0.908 -8.317,-4.662 -9.179,-9.18 -2.454,3.89 -7.107,6.095 -11.9,5.187 -6.261,-1.187 -10.374,-7.223 -9.188,-13.484 3.027,-15.974 26.485,-20.182 26.485,-20.182 0,0 20.065,13.69 17.264,28.471 C 12.297,-2.927 6.26,1.187 0,0"
             style="fill:#8667f1;fill-opacity:1;fill-rule:nonzero;stroke:none"
             id="path326" />
        </g>
        <g
           id="g328"
           transform="translate(123.7798,298.8965)"
           style="fill:#8667f1;fill-opacity:1">
          <path
             d="m 0,0 c 0,-23.437 -18.999,-42.436 -42.436,-42.436 -23.436,0 -42.435,18.999 -42.435,42.436 0,23.437 18.999,42.436 42.435,42.436 C -18.999,42.436 0,23.437 0,0"
             style="fill:#8667f1;fill-opacity:1;fill-rule:nonzero;stroke:none"
             id="path330" />
        </g>
        <g
           id="g332"
           transform="translate(128.313,298.8965)"
           style="fill:#8667f1;fill-opacity:1">
          <path
             d="M 0,0 C 0,-10.391984 -3.3750142,-19.995624 -9.088716,-27.774724 -17.637298,-39.413461 -31.420984,-46.968 -46.969,-46.968 c -25.94,0 -46.969,21.028 -46.969,46.968 0,25.94 21.029,46.969 46.969,46.969 C -21.029,46.969 0,25.94 0,0 Z"
             style="fill:#8667f1;fill-opacity:1;stroke:#80c1bc;stroke-width:1;stroke-linecap:butt;stroke-linejoin:miter;stroke-miterlimit:10;stroke-dasharray:none;stroke-opacity:1"
             id="path334"
             sodipodi:nodetypes="ssssss" />
        </g>
        <g
           id="g336"
           transform="translate(210.2979,402.6211)"
           style="fill:#8667f1;fill-opacity:1">
          <path
             d="m 0,0 c 0,-23.437 -18.999,-42.436 -42.436,-42.436 -23.436,0 -42.436,18.999 -42.436,42.436 0,23.437 19,42.436 42.436,42.436 C -18.999,42.436 0,23.437 0,0"
             style="fill:#8667f1;fill-opacity:1;fill-rule:nonzero;stroke:none"
             id="path338" />
        </g>
        <g
           id="g340"
           transform="translate(214.5361,402.6211)"
           style="fill:#8667f1;fill-opacity:1">
          <path
             d="m 0,0 c 0,-25.777 -20.896,-46.674 -46.674,-46.674 -25.777,0 -46.674,20.897 -46.674,46.674 0,25.777 20.897,46.674 46.674,46.674 C -20.896,46.674 0,25.777 0,0 Z"
             style="fill:#8667f1;fill-opacity:1;stroke:#80c1bc;stroke-width:1;stroke-linecap:butt;stroke-linejoin:miter;stroke-miterlimit:10;stroke-dasharray:none;stroke-opacity:1"
             id="path342" />
        </g>
        <g
           id="g344"
           transform="translate(352.166,420.8291)"
           style="fill:#8667f1;fill-opacity:1">
          <path
             d="m 0,0 c 0,-23.437 -18.999,-42.436 -42.436,-42.436 -23.436,0 -42.435,18.999 -42.435,42.436 0,23.437 18.999,42.436 42.435,42.436 C -18.999,42.436 0,23.437 0,0"
             style="fill:#8667f1;fill-opacity:1;fill-rule:nonzero;stroke:none"
             id="path346" />
        </g>
        <g
           id="g348"
           transform="translate(356.5332,420.8291)"
           style="fill:#8667f1;fill-opacity:1">
          <path
             d="m 0,0 c 0,-25.849 -20.954,-46.803 -46.803,-46.803 -25.847,0 -46.802,20.954 -46.802,46.803 0,25.848 20.955,46.802 46.802,46.802 C -20.954,46.802 0,25.848 0,0 Z"
             style="fill:#8667f1;fill-opacity:1;stroke:#80c1bc;stroke-width:1;stroke-linecap:butt;stroke-linejoin:miter;stroke-miterlimit:10;stroke-dasharray:none;stroke-opacity:1"
             id="path350" />
        </g>
        <g
           id="g352"
           transform="translate(460.4707,344.2793)"
           style="fill:#8667f1;fill-opacity:1">
          <path
             d="m 0,0 c 0,-23.437 -18.999,-42.436 -42.436,-42.436 -23.436,0 -42.435,18.999 -42.435,42.436 0,23.437 18.999,42.436 42.435,42.436 C -18.999,42.436 0,23.437 0,0"
             style="fill:#8667f1;fill-opacity:1;fill-rule:nonzero;stroke:none"
             id="path354" />
        </g>
        <g
           id="g356"
           transform="translate(465.0654,344.2793)"
           style="fill:#8667f1;fill-opacity:1">
          <path
             d="m 0,0 c 0,-25.975 -21.056,-47.031 -47.03,-47.031 -25.975,0 -47.032,21.056 -47.032,47.031 0,25.974 21.057,47.03 47.032,47.03 C -21.056,47.03 0,25.974 0,0 Z"
             style="fill:#8667f1;fill-opacity:1;stroke:#80c1bc;stroke-width:1;stroke-linecap:butt;stroke-linejoin:miter;stroke-miterlimit:10;stroke-dasharray:none;stroke-opacity:1"
             id="path358" />
        </g>
        <g
           id="g360"
           transform="translate(57.3032,303.6602)"
           style="fill:#8667f1;fill-opacity:1">
          <path
             d="m 0,0 c -1.314,-1.033 -1.542,-2.936 -0.509,-4.25 l 17.672,-22.475 c 1.033,-1.314 2.936,-1.542 4.25,-0.508 1.315,1.033 1.542,2.936 0.509,4.25 L 4.25,-0.508 C 3.217,0.806 1.314,1.034 0,0"
             style="fill:#8667f1;fill-opacity:1;fill-rule:nonzero;stroke:none"
             id="path362" />
        </g>
        <g
           id="g364"
           transform="translate(55.4048,294.2773)"
           style="fill:#e3e7ff;fill-opacity:1">
          <path
             d="M 0,0 C -1.314,-1.033 -1.542,-2.937 -0.508,-4.25 L 9.495,-16.973 c 1.033,-1.314 2.937,-1.542 4.251,-0.508 1.314,1.033 1.542,2.936 0.508,4.25 L 4.25,-0.508 C 3.217,0.806 1.314,1.033 0,0"
             style="fill:#e3e7ff;fill-opacity:1;fill-rule:nonzero;stroke:none"
             id="path366" />
        </g>
        <g
           id="g368"
           transform="translate(60.7515,280.7139)"
           style="fill:#8667f1;fill-opacity:1">
          <path
             d="M 0,0 C -1.236,-0.972 -3.027,-0.758 -3.999,0.478 -4.971,1.715 -4.757,3.505 -3.521,4.477 -2.368,3.011 -0.833,1.059 0,0"
             style="fill:#8667f1;fill-opacity:1;fill-rule:nonzero;stroke:none"
             id="path370" />
        </g>
        <g
           id="g372"
           transform="translate(85.2998,325.6738)"
           style="fill:#8667f1;fill-opacity:1">
          <path
             d="m 0,0 c 1.314,1.033 3.217,0.806 4.25,-0.509 l 17.672,-22.474 c 1.033,-1.314 0.806,-3.217 -0.508,-4.25 -1.315,-1.034 -3.218,-0.806 -4.251,0.508 L -0.508,-4.25 C -1.542,-2.937 -1.314,-1.033 0,0"
             style="fill:#8667f1;fill-opacity:1;fill-rule:nonzero;stroke:none"
             id="path374" />
        </g>
        <g
           id="g376"
           transform="translate(94.8657,325.3047)"
           style="fill:#e3e7ff;fill-opacity:1">
          <path
             d="m 0,0 c 1.314,1.033 3.217,0.806 4.25,-0.508 l 10.004,-12.723 c 1.033,-1.314 0.806,-3.217 -0.508,-4.25 -1.315,-1.034 -3.218,-0.806 -4.251,0.508 L -0.508,-4.25 C -1.542,-2.936 -1.314,-1.033 0,0"
             style="fill:#e3e7ff;fill-opacity:1;fill-rule:nonzero;stroke:none"
             id="path378" />
        </g>
        <g
           id="g380"
           transform="translate(106.7856,316.9097)"
           style="fill:#8667f1;fill-opacity:1">
          <path
             d="M 0,0 C 1.236,0.972 1.45,2.763 0.478,3.999 -0.494,5.235 -2.284,5.45 -3.521,4.478 -2.368,3.011 -0.833,1.059 0,0"
             style="fill:#8667f1;fill-opacity:1;fill-rule:nonzero;stroke:none"
             id="path382" />
        </g>
        <g
           id="g384"
           transform="translate(93.2129,307.3066)"
           style="fill:#e3e7ff;fill-opacity:1">
          <path
             d="m 0,0 -20.151,-15.844 -3.301,4.198 20.151,15.844 z"
             style="fill:#e3e7ff;fill-opacity:1;fill-rule:nonzero;stroke:none"
             id="path386" />
        </g>
        <g
           id="g388"
           transform="translate(175.3643,379.585)"
           style="fill:#e3e7ff;fill-opacity:1">
          <path
             d="m 0,0 c -16.562,-5.896 -29.064,4.059 -30.237,17.851 -0.902,10.607 11.365,14.135 19.843,13.285 2.672,4.081 7.589,10.117 16.441,6.635 C 19.828,32.349 15.872,5.65 0,0"
             style="fill:#e3e7ff;fill-opacity:1;fill-rule:nonzero;stroke:none"
             id="path390" />
        </g>
        <g
           id="g392"
           transform="translate(162.9297,413.7617)"
           style="fill:#8667f1;fill-opacity:1">
          <path
             d="M 0,0 C 0,0 -5.18,10.316 0.405,16.638 5.791,7.828 0,0 0,0"
             style="fill:#8667f1;fill-opacity:1;fill-rule:nonzero;stroke:none"
             id="path394" />
        </g>
        <g
           id="g396"
           transform="translate(327.8691,439.7471)"
           style="fill:#e3e7ff;fill-opacity:1">
          <path
             d="m 0,0 c -2.674,-3.315 -5.536,-6.483 -8.419,-9.623 -2.885,1.402 -5.765,2.813 -8.608,4.296 -0.429,0.223 -0.852,0.335 -1.256,0.358 -0.738,0.21 -1.517,0.168 -2.146,-0.176 -3.12,-0.449 -6.257,-0.776 -9.397,-1.041 -1.729,-0.145 -3.006,-0.199 -4.192,-1.652 -1.873,-2.296 -3.363,-5.024 -5.013,-7.488 -2.132,-3.184 3.01,-6.16 5.128,-2.997 1.385,2.07 2.772,4.14 4.158,6.211 2.455,0.204 4.905,0.456 7.35,0.761 -1.81,-10.186 -4.238,-21.087 -9.301,-30.022 -2.574,1.426 -5.012,3.109 -7.279,4.967 -2.932,2.404 -7.157,-1.774 -4.199,-4.199 3.422,-2.805 7.075,-5.349 11.095,-7.231 1.508,-0.706 3.121,-0.381 4.062,1.065 2.728,4.193 4.814,8.862 6.474,13.74 2.313,-1.167 4.627,-2.331 6.942,-3.494 -1.02,-3.171 -2.262,-6.255 -3.519,-9.348 -1.439,-3.538 4.304,-5.078 5.726,-1.578 1.561,3.839 3.118,7.659 4.227,11.658 0.33,1.191 -0.201,2.776 -1.365,3.353 -3.433,1.7 -6.841,3.448 -10.265,5.167 1.36,5.001 2.375,10.105 3.251,15.059 2.432,-1.219 4.873,-2.419 7.321,-3.604 1.157,-0.561 2.663,-0.551 3.598,0.464 3.355,3.642 6.717,7.301 9.826,11.155 C 6.577,-1.251 2.401,2.976 0,0"
             style="fill:#e3e7ff;fill-opacity:1;fill-rule:nonzero;stroke:none"
             id="path398" />
        </g>
        <g
           id="g400"
           transform="translate(309.4893,436.0728)"
           style="fill:#e3e7ff;fill-opacity:1">
          <path
             d="M 0,0 C 3.623,-0.093 6.637,2.769 6.729,6.393 6.822,10.017 3.96,13.03 0.336,13.123 -3.287,13.216 -6.301,10.354 -6.394,6.729 -6.486,3.106 -3.624,0.093 0,0"
             style="fill:#e3e7ff;fill-opacity:1;fill-rule:nonzero;stroke:none"
             id="path402" />
        </g>
        <g
           id="g404"
           transform="translate(437.6436,356.9497)"
           style="fill:#e3e7ff;fill-opacity:1">
          <path
             d="m 0,0 c -5.425,1.479 -10.973,-0.633 -14.146,-4.88 -0.579,5.27 -4.289,9.904 -9.713,11.382 -7.086,1.932 -14.396,-2.247 -16.328,-9.333 -0.996,-3.657 -0.883,-7.237 -0.069,-10.622 l 9.854,-2.651 5.407,9.31 c 0.29,0.5 0.875,0.748 1.436,0.61 0.009,-0.002 0.018,-0.004 0.027,-0.007 0.548,-0.147 0.937,-0.632 0.962,-1.201 l 0.633,-14.912 5.434,9.766 c 0.292,0.526 0.906,0.771 1.486,0.621 0.579,-0.161 0.972,-0.699 0.951,-1.3 l -0.208,-5.771 6.025,-1.621 c 0.693,-0.186 1.104,-0.9 0.918,-1.594 -0.187,-0.693 -0.9,-1.105 -1.594,-0.918 l -7.024,1.889 c -0.585,0.158 -0.984,0.698 -0.962,1.303 l 0.051,1.398 -5.044,-9.065 c -0.283,-0.509 -0.87,-0.767 -1.437,-0.633 -0.013,0.003 -0.025,0.006 -0.038,0.01 -0.547,0.147 -0.937,0.632 -0.962,1.2 l -0.639,15.07 -3.673,-6.323 c -0.295,-0.508 -0.895,-0.755 -1.462,-0.603 l -9.25,2.488 c 4.346,-11.897 16.434,-20.728 16.434,-20.728 0,0 27.704,4.056 32.265,20.788 C 11.265,-9.241 7.086,-1.931 0,0"
             style="fill:#e3e7ff;fill-opacity:1;fill-rule:nonzero;stroke:none"
             id="path406" />
        </g>
        <g
           id="g408"
           transform="translate(337.3877,298.4268)"
           style="fill:#8667f1;fill-opacity:1">
          <path
             d="m 0,0 c 0,-2.203 -1.786,-3.988 -3.988,-3.988 -2.202,0 -3.989,1.785 -3.989,3.988 0,2.202 1.787,3.988 3.989,3.988 C -1.786,3.988 0,2.202 0,0"
             style="fill:#8667f1;fill-opacity:1;fill-rule:nonzero;stroke:none"
             id="path410" />
        </g>
        <g
           id="g412"
           transform="translate(437.7529,259.2109)"
           style="fill:#8667f1;fill-opacity:1">
          <path
             d="m 0,0 c 0,-1.835 -1.488,-3.323 -3.323,-3.323 -1.836,0 -3.323,1.488 -3.323,3.323 0,1.835 1.487,3.323 3.323,3.323 C -1.488,3.323 0,1.835 0,0"
             style="fill:#8667f1;fill-opacity:1;fill-rule:nonzero;stroke:none"
             id="path414" />
        </g>
        <g
           id="g416"
           transform="translate(330.7402,265.1929)"
           style="fill:#8667f1;fill-opacity:1">
          <path
             d="m 0,0 c 0,-0.367 -0.297,-0.665 -0.664,-0.665 -0.367,0 -0.665,0.298 -0.665,0.665 0,0.367 0.298,0.665 0.665,0.665 C -0.297,0.665 0,0.367 0,0"
             style="fill:#8667f1;fill-opacity:1;fill-rule:nonzero;stroke:none"
             id="path418" />
        </g>
        <g
           id="g420"
           transform="translate(329.4111,202.0488)"
           style="fill:#8667f1;fill-opacity:1">
          <path
             d="m 0,0 c 0,-1.102 -0.893,-1.994 -1.994,-1.994 -1.101,0 -1.994,0.892 -1.994,1.994 0,1.102 0.893,1.994 1.994,1.994 C -0.893,1.994 0,1.102 0,0"
             style="fill:#8667f1;fill-opacity:1;fill-rule:nonzero;stroke:none"
             id="path422" />
        </g>
        <g
           id="g424"
           transform="translate(447.7227,214.0127)"
           style="fill:#8667f1;fill-opacity:1">
          <path
             d="m 0,0 c 0,-1.835 -1.487,-3.323 -3.323,-3.323 -1.835,0 -3.323,1.488 -3.323,3.323 0,1.836 1.488,3.324 3.323,3.324 C -1.487,3.324 0,1.836 0,0"
             style="fill:#8667f1;fill-opacity:1;fill-rule:nonzero;stroke:none"
             id="path426" />
        </g>
        <g
           id="g428"
           transform="translate(354.6689,103.3447)"
           style="fill:#8667f1;fill-opacity:1">
          <path
             d="m 0,0 c 0,-2.019 -1.637,-3.655 -3.656,-3.655 -2.019,0 -3.656,1.636 -3.656,3.655 0,2.02 1.637,3.656 3.656,3.656 C -1.637,3.656 0,2.02 0,0"
             style="fill:#8667f1;fill-opacity:1;fill-rule:nonzero;stroke:none"
             id="path430" />
        </g>
        <g
           id="g432"
           transform="translate(353.3398,50.8359)"
           style="fill:#8667f1;fill-opacity:1">
          <path
             d="m 0,0 c 0,-2.019 -1.637,-3.655 -3.656,-3.655 -2.019,0 -3.656,1.636 -3.656,3.655 0,2.019 1.637,3.655 3.656,3.655 C -1.637,3.655 0,2.019 0,0"
             style="fill:#8667f1;fill-opacity:1;fill-rule:nonzero;stroke:none"
             id="path434" />
        </g>
        <g
           id="g436"
           transform="translate(410.501,66.4561)"
           style="fill:#8667f1;fill-opacity:1">
          <path
             d="m 0,0 c 0,-0.734 -0.595,-1.33 -1.329,-1.33 -0.734,0 -1.329,0.596 -1.329,1.33 0,0.734 0.595,1.329 1.329,1.329 C -0.595,1.329 0,0.734 0,0"
             style="fill:#8667f1;fill-opacity:1;fill-rule:nonzero;stroke:none"
             id="path438" />
        </g>
        <g
           id="g440"
           transform="translate(160.5845,180.1152)"
           style="fill:#8667f1;fill-opacity:1">
          <path
             d="m 0,0 c 0,-0.734 -0.595,-1.33 -1.33,-1.33 -0.733,0 -1.329,0.596 -1.329,1.33 0,0.733 0.596,1.329 1.329,1.329 C -0.595,1.329 0,0.733 0,0"
             style="fill:#8667f1;fill-opacity:1;fill-rule:nonzero;stroke:none"
             id="path442" />
        </g>
        <g
           id="g444"
           transform="translate(174.5425,214.3457)"
           style="fill:#8667f1;fill-opacity:1">
          <path
             d="m 0,0 c 0,-1.285 -1.042,-2.326 -2.326,-2.326 -1.285,0 -2.327,1.041 -2.327,2.326 0,1.284 1.042,2.326 2.327,2.326 C -1.042,2.326 0,1.284 0,0"
             style="fill:#8667f1;fill-opacity:1;fill-rule:nonzero;stroke:none"
             id="path446" />
        </g>
        <g
           id="g448"
           transform="translate(146.6265,244.2559)"
           style="fill:#8667f1;fill-opacity:1">
          <path
             d="m 0,0 c 0,-0.918 -0.744,-1.662 -1.662,-1.662 -0.918,0 -1.662,0.744 -1.662,1.662 0,0.918 0.744,1.661 1.662,1.661 C -0.744,1.661 0,0.918 0,0"
             style="fill:#8667f1;fill-opacity:1;fill-rule:nonzero;stroke:none"
             id="path450" />
        </g>
        <g
           id="g452"
           transform="translate(53.5723,201.0518)"
           style="fill:#8667f1;fill-opacity:1">
          <path
             d="m 0,0 c 0,-0.918 -0.744,-1.661 -1.662,-1.661 -0.918,0 -1.662,0.743 -1.662,1.661 0,0.918 0.744,1.662 1.662,1.662 C -0.744,1.662 0,0.918 0,0"
             style="fill:#8667f1;fill-opacity:1;fill-rule:nonzero;stroke:none"
             id="path454" />
        </g>
        <g
           id="g456"
           transform="translate(28.3145,118.9648)"
           style="fill:#8667f1;fill-opacity:1">
          <path
             d="m 0,0 c 0,-1.102 -0.893,-1.994 -1.994,-1.994 -1.101,0 -1.994,0.892 -1.994,1.994 0,1.102 0.893,1.994 1.994,1.994 C -0.893,1.994 0,1.102 0,0"
             style="fill:#8667f1;fill-opacity:1;fill-rule:nonzero;stroke:none"
             id="path458" />
        </g>
        <g
           id="g460"
           transform="translate(150.6143,52.498)"
           style="fill:#8667f1;fill-opacity:1">
          <path
             d="m 0,0 c 0,-1.102 -0.893,-1.994 -1.994,-1.994 -1.101,0 -1.994,0.892 -1.994,1.994 0,1.101 0.893,1.993 1.994,1.993 C -0.893,1.993 0,1.101 0,0"
             style="fill:#8667f1;fill-opacity:1;fill-rule:nonzero;stroke:none"
             id="path462" />
        </g>
        <g
           id="g464"
           transform="translate(150.6143,328.0044)"
           style="fill:#8667f1;fill-opacity:1">
          <path
             d="m 0,0 c 0,-0.551 -0.446,-0.997 -0.997,-0.997 -0.55,0 -0.997,0.446 -0.997,0.997 0,0.551 0.447,0.997 0.997,0.997 C -0.446,0.997 0,0.551 0,0"
             style="fill:#8667f1;fill-opacity:1;fill-rule:nonzero;stroke:none"
             id="path466" />
        </g>
        <g
           id="g468"
           transform="translate(95.4463,362.8999)"
           style="fill:#8667f1;fill-opacity:1">
          <path
             d="m 0,0 c 0,-1.102 -0.893,-1.994 -1.994,-1.994 -1.101,0 -1.994,0.892 -1.994,1.994 0,1.101 0.893,1.994 1.994,1.994 C -0.893,1.994 0,1.101 0,0"
             style="fill:#8667f1;fill-opacity:1;fill-rule:nonzero;stroke:none"
             id="path470" />
        </g>
        <g
           id="g472"
           transform="translate(244.333,411.7534)"
           style="fill:#8667f1;fill-opacity:1">
          <path
             d="m 0,0 c 0,-2.019 -1.637,-3.656 -3.656,-3.656 -2.018,0 -3.655,1.637 -3.655,3.656 0,2.019 1.637,3.655 3.655,3.655 C -1.637,3.655 0,2.019 0,0"
             style="fill:#8667f1;fill-opacity:1;fill-rule:nonzero;stroke:none"
             id="path474" />
        </g>
        <g
           id="g476"
           transform="translate(263.6084,376.8579)"
           style="fill:#8667f1;fill-opacity:1">
          <path
             d="m 0,0 c 0,-1.101 -0.893,-1.994 -1.994,-1.994 -1.101,0 -1.993,0.893 -1.993,1.994 0,1.101 0.892,1.994 1.993,1.994 C -0.893,1.994 0,1.101 0,0"
             style="fill:#8667f1;fill-opacity:1;fill-rule:nonzero;stroke:none"
             id="path478" />
        </g>
        <g
           id="g480"
           transform="translate(381.9209,397.1304)"
           style="fill:#8667f1;fill-opacity:1">
          <path
             d="m 0,0 c 0,-0.917 -0.744,-1.662 -1.662,-1.662 -0.918,0 -1.662,0.745 -1.662,1.662 0,0.918 0.744,1.662 1.662,1.662 C -0.744,1.662 0,0.918 0,0"
             style="fill:#8667f1;fill-opacity:1;fill-rule:nonzero;stroke:none"
             id="path482" />
        </g>
        <g
           id="g484"
           transform="translate(423.7949,431.0288)"
           style="fill:#8667f1;fill-opacity:1">
          <path
             d="m 0,0 c 0,-0.918 -0.744,-1.662 -1.662,-1.662 -0.917,0 -1.661,0.744 -1.661,1.662 0,0.917 0.744,1.662 1.661,1.662 C -0.744,1.662 0,0.917 0,0"
             style="fill:#8667f1;fill-opacity:1;fill-rule:nonzero;stroke:none"
             id="path486" />
        </g>
        <g
           id="g488"
           transform="translate(320.1055,343.292)"
           style="fill:#8667f1;fill-opacity:1">
          <path
             d="m 0,0 c 0,-1.652 -1.339,-2.991 -2.99,-2.991 -1.653,0 -2.991,1.339 -2.991,2.991 0,1.652 1.338,2.991 2.991,2.991 C -1.339,2.991 0,1.652 0,0"
             style="fill:#8667f1;fill-opacity:1;fill-rule:nonzero;stroke:none"
             id="path490" />
        </g>
        <g
           id="g492"
           transform="translate(457.0283,286.1299)"
           style="fill:#8667f1;fill-opacity:1">
          <path
             d="m 0,0 c 0,-0.55 -0.446,-0.997 -0.997,-0.997 -0.551,0 -0.997,0.447 -0.997,0.997 0,0.551 0.446,0.997 0.997,0.997 C -0.446,0.997 0,0.551 0,0"
             style="fill:#8667f1;fill-opacity:1;fill-rule:nonzero;stroke:none"
             id="path494" />
        </g>
        <g
           id="g496"
           transform="translate(419.8066,101.3516)"
           style="fill:#8667f1;fill-opacity:1">
          <path
             d="m 0,0 c 0,-1.285 -1.041,-2.327 -2.326,-2.327 -1.285,0 -2.326,1.042 -2.326,2.327 0,1.284 1.041,2.326 2.326,2.326 C -1.041,2.326 0,1.284 0,0"
             style="fill:#8667f1;fill-opacity:1;fill-rule:nonzero;stroke:none"
             id="path498" />
        </g>
      </g>
    </g>
  </g>
</svg>
