<?xml version="1.0" standalone="no"?>
<!DOCTYPE svg PUBLIC "-//W3C//DTD SVG 20010904//EN"
 "http://www.w3.org/TR/2001/REC-SVG-20010904/DTD/svg10.dtd">
<svg version="1.0" xmlns="http://www.w3.org/2000/svg"
 width="1280.000000pt" height="1024.000000pt" viewBox="0 0 1280.000000 1024.000000"
 preserveAspectRatio="xMidYMid meet">
<metadata>
Created by potrace 1.15, written by Peter Selinger 2001-2017
</metadata>
<g transform="translate(0.000000,1024.000000) scale(0.100000,-0.100000)"
fill="#000000" stroke="none">
<path d="M6659 9641 c-96 -38 -239 -135 -239 -162 0 -6 -9 -29 -20 -52 -42
-87 -59 -193 -40 -242 5 -11 16 -63 25 -115 9 -52 27 -139 41 -192 29 -115 30
-157 7 -222 -22 -61 -87 -136 -117 -136 -26 0 -46 -18 -45 -40 0 -9 4 -6 9 8
5 12 17 22 26 22 13 0 15 -6 9 -27 -4 -16 -8 -29 -9 -30 -1 -1 -19 2 -41 7
-22 5 -46 10 -52 10 -15 0 -17 -39 -3 -60 8 -12 10 -11 10 7 0 19 4 21 43 16
67 -7 127 -25 127 -37 0 -17 -46 -57 -111 -99 -94 -59 -138 -133 -139 -235 0
-66 25 -117 91 -187 l49 -52 -21 -94 c-16 -72 -36 -121 -84 -209 -34 -63 -99
-196 -144 -295 -45 -99 -88 -187 -94 -195 -17 -22 -127 -104 -162 -123 -30
-15 -33 -14 -173 53 -78 38 -142 75 -142 82 0 7 -48 49 -106 92 -58 44 -140
109 -182 146 -104 89 -243 192 -382 283 -64 41 -122 83 -130 92 -31 38 -141
113 -240 165 -106 56 -164 89 -251 147 -72 47 -145 70 -219 71 -48 0 -88 9
-150 32 -76 29 -146 47 -321 83 -50 10 -59 15 -75 47 -11 19 -78 94 -150 165
-72 72 -141 149 -154 172 -23 42 -44 58 -61 47 -10 -6 -7 -24 26 -144 35 -124
40 -160 24 -160 -8 0 -38 -11 -67 -25 l-52 -24 -63 43 c-34 23 -100 65 -147
92 -46 27 -120 83 -164 124 l-79 75 6 -38 c14 -90 141 -313 242 -425 l47 -53
-54 -57 c-92 -98 -153 -178 -117 -156 12 7 -24 -43 -95 -134 -27 -34 -52 -59
-56 -57 -4 3 -14 -3 -21 -13 -13 -15 -12 -16 4 -3 38 30 13 -9 -73 -112 -94
-113 -131 -166 -95 -137 18 15 18 14 1 -12 -17 -26 -35 -41 -20 -16 4 7 3 8
-5 4 -6 -4 -9 -11 -6 -16 3 -5 -10 -34 -30 -64 -19 -30 -35 -60 -35 -67 0 -6
-10 -28 -22 -48 -19 -32 -20 -34 -3 -21 22 17 21 15 -27 -60 l-29 -45 39 42
c25 27 38 36 37 25 0 -10 -5 -23 -9 -30 -4 -7 -5 -16 -2 -19 3 -3 -1 -20 -10
-37 -14 -29 -14 -30 2 -8 38 52 40 -1 3 -64 -11 -17 -19 -37 -19 -45 0 -21
-128 -227 -187 -301 -78 -98 -94 -130 -100 -198 -6 -67 6 -145 44 -270 30
-100 55 -127 159 -179 60 -31 81 -36 184 -43 122 -9 202 1 252 30 25 14 68 93
68 122 0 18 48 53 97 72 l44 16 112 -53 c227 -107 357 -138 582 -140 154 -2
182 -5 295 -34 143 -36 317 -61 424 -61 l73 0 26 -52 c50 -102 137 -350 137
-392 0 -23 -10 -95 -21 -161 -24 -142 -36 -416 -21 -495 26 -136 83 -238 167
-296 30 -20 55 -43 55 -51 0 -7 -31 -73 -69 -146 -79 -149 -119 -261 -187
-522 -83 -321 -148 -486 -240 -608 -25 -34 -54 -77 -64 -97 -42 -84 -52 -201
-30 -335 15 -88 15 -430 1 -550 -7 -50 -27 -137 -47 -194 -31 -89 -37 -122
-41 -220 -3 -68 -17 -176 -34 -262 -16 -80 -29 -179 -29 -220 -1 -41 -7 -110
-16 -154 -44 -233 -43 -243 9 -276 66 -42 203 -4 334 92 85 63 152 128 185
178 26 42 28 52 28 150 l0 104 -70 67 c-71 68 -100 117 -100 168 0 29 26 62
49 62 6 0 24 20 40 45 l29 45 1 256 c0 141 5 295 11 343 19 159 21 176 31 220
12 54 108 299 150 383 40 80 171 267 368 528 171 224 251 314 348 392 l65 51
171 2 c95 0 181 -3 193 -8 33 -14 55 -56 191 -372 138 -320 223 -634 207 -765
-16 -131 -6 -214 41 -360 24 -74 53 -175 64 -225 25 -116 42 -332 39 -510 -2
-77 1 -170 6 -207 l8 -66 -82 -88 c-81 -85 -110 -132 -110 -175 0 -11 -9 -33
-19 -48 -31 -44 -131 -252 -131 -273 0 -31 52 -75 110 -92 66 -20 187 -20 256
-2 72 19 152 64 180 102 38 49 56 163 58 359 1 164 2 171 25 202 14 18 33 36
44 39 29 9 60 88 53 138 -3 22 -8 61 -11 86 -3 25 -10 59 -15 75 -21 68 -40
203 -45 313 -3 64 -10 170 -16 234 -9 100 -8 131 6 213 20 109 18 171 -15 375
-11 74 -23 203 -26 285 -7 206 10 873 24 906 11 27 12 27 139 33 266 14 433
42 617 106 33 11 61 20 63 20 1 0 3 -35 3 -78 0 -133 32 -254 79 -296 24 -22
78 -23 118 -2 17 8 49 36 72 62 26 30 42 42 45 33 2 -8 31 -100 65 -205 l60
-191 3 -264 c3 -255 2 -268 -24 -389 -15 -69 -41 -189 -58 -268 -18 -89 -47
-184 -74 -250 -24 -59 -47 -133 -51 -166 -9 -71 -34 -103 -136 -171 -84 -58
-130 -109 -169 -190 -16 -33 -53 -92 -83 -130 -73 -96 -82 -112 -66 -132 19
-22 48 -31 139 -42 109 -14 347 14 396 47 7 4 23 32 38 62 26 53 26 55 10 109
-13 44 -13 62 -4 95 17 63 73 132 129 160 31 16 50 33 54 48 3 13 10 41 16 63
5 22 12 60 16 85 18 129 140 648 192 820 19 63 46 153 61 200 56 188 69 250
61 293 -52 264 -58 362 -30 572 36 280 73 358 249 533 l115 112 48 -45 c27
-25 93 -74 147 -109 127 -83 236 -197 320 -340 71 -119 165 -244 292 -391 125
-146 134 -160 158 -259 12 -49 44 -137 71 -195 54 -115 74 -196 91 -366 21
-209 23 -293 11 -370 -11 -66 -10 -87 4 -153 30 -131 8 -222 -86 -358 -16 -23
-29 -54 -29 -68 0 -14 -11 -69 -25 -122 -32 -125 -33 -177 -1 -209 62 -62 229
-58 326 8 45 30 97 99 110 145 6 26 6 58 -1 102 -6 36 -11 80 -13 97 -1 18
-12 43 -23 55 -39 44 -44 63 -33 131 12 80 35 145 59 172 41 45 51 78 40 146
-5 35 -16 111 -24 169 -8 58 -18 134 -24 170 -5 36 -15 101 -21 145 -24 179
-42 305 -57 393 -14 89 -13 135 1 75 10 -39 57 -133 66 -133 5 0 11 -8 14 -17
3 -10 3 0 0 22 l-5 40 26 -45 c34 -58 36 -60 29 -22 -9 43 4 40 22 -5 10 -23
18 -32 23 -24 5 8 11 3 19 -14 7 -14 17 -23 22 -20 6 3 13 -1 16 -10 4 -9 12
-14 19 -11 8 3 16 -2 19 -10 3 -8 10 -14 16 -14 6 0 8 4 5 10 -3 6 1 7 9 4 11
-4 16 0 16 15 0 26 8 27 26 3 12 -15 13 -13 10 18 -13 106 -15 154 -6 133 14
-33 23 -28 16 9 -7 37 4 29 21 -15 l13 -32 -6 35 c-3 19 -8 44 -10 55 -10 37
15 -7 27 -49 23 -83 18 -3 -6 99 -3 11 2 7 10 -10 14 -30 14 -30 15 -5 1 23 2
23 10 5 15 -35 11 -1 -15 115 -29 132 -30 143 -5 75 26 -69 24 -46 -5 91 -14
65 -23 124 -20 131 2 8 -17 94 -44 191 -79 282 -122 460 -127 517 -2 29 -47
205 -99 391 -116 413 -159 575 -180 677 -32 158 -134 411 -221 549 -42 66
-115 138 -167 165 -27 13 -90 34 -142 47 -76 19 -109 34 -179 81 -191 127
-459 203 -776 221 -141 8 -459 -10 -560 -31 -169 -35 -305 -90 -369 -150 -33
-30 -67 -49 -116 -65 -38 -13 -76 -25 -83 -28 -9 -3 -10 2 -2 23 13 35 13 210
-1 260 -6 22 -19 58 -29 80 -39 86 -50 118 -50 142 0 34 -38 104 -60 110 -15
4 -60 62 -60 77 0 2 30 6 68 10 138 14 297 64 338 107 l29 31 -2 226 c-2 135
-9 272 -18 337 -8 61 -20 187 -25 280 -15 245 -27 384 -38 433 -5 23 -8 42 -6
42 3 0 -5 18 -16 41 -21 41 -22 61 -2 37 20 -26 72 -136 81 -174 l9 -39 1 45
c1 25 4 56 8 69 5 19 3 23 -9 18 -12 -4 -18 3 -22 26 -11 58 -54 137 -104 190
-27 28 -52 63 -55 77 -56 249 -90 345 -158 450 -110 170 -287 255 -420 201z
m-150 -861 c0 -10 -3 -8 -9 5 -12 27 -12 43 0 25 5 -8 9 -22 9 -30z m-39 -101
c-16 -37 -34 -50 -20 -14 6 15 10 38 10 53 1 24 2 25 11 9 8 -13 7 -27 -1 -48z
m45 10 c-5 -15 -4 -19 4 -15 6 4 11 5 11 1 0 -12 -32 -54 -45 -59 -12 -4 -12
-1 -3 19 6 13 16 22 21 18 6 -4 8 0 4 10 -3 10 -4 24 -1 32 9 23 16 18 9 -6z
m-82 -94 c-3 -9 -8 -14 -10 -11 -3 3 -2 9 2 15 9 16 15 13 8 -4z m-32 -68
c-16 -16 -26 0 -10 19 9 11 15 12 17 4 2 -6 -1 -17 -7 -23z m-17 -71 c-2 -13
1 -14 12 -5 15 13 18 2 5 -19 -5 -9 -17 -11 -34 -6 -31 7 -31 8 -15 34 15 23
34 21 32 -4z m770 -594 c3 -26 17 -97 31 -158 14 -60 25 -126 25 -146 0 -35
-2 -38 -42 -49 -24 -6 -84 -24 -134 -40 -50 -16 -94 -29 -98 -29 -10 0 -7 71
5 115 12 42 65 156 78 165 4 3 31 48 61 102 30 53 58 94 61 92 4 -2 9 -25 13
-52z m-884 -672 c0 -5 -5 -10 -11 -10 -5 0 -7 5 -4 10 3 6 8 10 11 10 2 0 4
-4 4 -10z m-3940 -42 c-13 -24 -49 -57 -63 -58 -5 0 9 20 30 44 41 47 52 52
33 14z m3840 -92 c0 -18 -28 -50 -65 -72 -29 -19 -29 -19 -15 1 63 86 80 102
80 71z m-2466 -473 c83 -90 244 -298 305 -397 34 -54 60 -100 58 -102 -6 -7
-194 -34 -332 -48 l-139 -14 -91 30 c-49 17 -133 47 -185 68 -52 21 -147 52
-210 70 -142 40 -220 69 -220 81 0 5 13 9 29 9 27 0 63 30 73 61 5 14 221 89
308 106 91 18 181 59 252 116 43 34 76 55 105 66 1 1 22 -20 47 -46z m-549
-158 c-51 -22 -82 -26 -40 -5 22 11 47 19 55 19 8 0 2 -6 -15 -14z m-296 -220
c16 -8 98 -35 182 -61 139 -42 346 -118 359 -131 9 -10 -134 8 -215 27 -100
23 -204 60 -318 113 -80 36 -87 42 -71 54 23 16 29 16 63 -2z m-174 -34 c19
-8 19 -8 -4 -20 -19 -11 -25 -11 -32 0 -15 25 0 34 36 20z m1455 -193 l32 -51
-109 6 c-59 3 -148 14 -198 24 l-90 17 90 14 c50 7 122 19 160 26 39 8 73 14
77 15 3 0 21 -22 38 -51z"/>
<path d="M7422 8535 c0 -16 2 -22 5 -12 2 9 2 23 0 30 -3 6 -5 -1 -5 -18z"/>
<path d="M2588 7788 c-70 -88 -100 -128 -94 -128 3 0 31 33 62 73 78 99 77 97
71 97 -2 0 -20 -19 -39 -42z"/>
<path d="M10271 3954 c0 -11 3 -14 6 -6 3 7 2 16 -1 19 -3 4 -6 -2 -5 -13z"/>
</g>
</svg>
