<?xml version="1.0" standalone="no"?>
<!DOCTYPE svg PUBLIC "-//W3C//DTD SVG 20010904//EN"
 "http://www.w3.org/TR/2001/REC-SVG-20010904/DTD/svg10.dtd">
<svg version="1.0" xmlns="http://www.w3.org/2000/svg"
 width="1280.000000pt" height="1280.000000pt" viewBox="0 0 1280.000000 1280.000000"
 preserveAspectRatio="xMidYMid meet">
<metadata>
Created by potrace 1.15, written by Peter Selinger 2001-2017
</metadata>
<g transform="translate(0.000000,1280.000000) scale(0.100000,-0.100000)"
fill="#000000" stroke="none">
<path d="M2670 10535 l0 -665 58 0 c95 -1 401 -19 502 -30 425 -48 791 -177
1106 -389 196 -131 273 -199 643 -566 l354 -352 -862 -862 c-473 -474 -861
-865 -861 -869 0 -4 40 -24 88 -44 48 -21 162 -81 252 -133 350 -203 399 -218
675 -218 267 0 336 20 590 172 149 90 394 210 499 246 217 72 432 105 691 105
439 0 731 -83 1149 -330 186 -109 262 -145 365 -171 98 -26 297 -35 420 -20
141 18 233 53 414 159 89 52 184 105 211 119 l49 25 -1699 1700 c-934 935
-1762 1759 -1839 1831 -610 569 -1193 835 -2024 922 -170 18 -485 35 -653 35
l-128 0 0 -665z"/>
<path d="M8665 11194 c-122 -18 -172 -28 -259 -55 -308 -95 -564 -293 -740
-573 -69 -109 -120 -230 -159 -376 -29 -109 -31 -125 -31 -310 -1 -151 3 -213
17 -277 58 -269 176 -485 371 -678 262 -260 572 -388 936 -388 272 0 516 73
745 225 101 67 287 250 352 348 169 252 240 505 230 810 -6 177 -36 315 -102
473 -168 397 -536 694 -970 783 -70 14 -333 26 -390 18z"/>
<path d="M2650 5593 c-193 -15 -420 -68 -595 -139 -124 -51 -202 -92 -393
-206 -221 -133 -312 -165 -489 -175 l-103 -6 0 -533 0 -534 53 0 c157 0 433
44 590 94 129 42 284 112 427 192 74 42 177 100 227 129 166 94 292 120 533
112 232 -7 310 -34 590 -199 251 -148 388 -208 604 -263 190 -48 292 -59 536
-60 237 0 332 11 519 56 220 54 380 123 631 275 272 163 337 184 585 191 273
8 375 -21 655 -186 267 -158 414 -223 624 -276 195 -49 293 -60 541 -60 243 0
359 14 550 64 207 55 345 117 629 285 265 156 361 182 641 173 232 -7 304 -31
580 -194 286 -168 456 -238 700 -288 120 -24 298 -45 388 -45 l47 0 0 535 0
535 -64 0 c-146 0 -301 47 -461 140 -355 206 -472 260 -671 315 -316 87 -695
98 -1029 30 -233 -47 -433 -130 -713 -297 -261 -156 -364 -188 -602 -188 -242
0 -347 30 -573 162 -198 116 -428 228 -546 268 -221 72 -486 106 -751 96 -411
-15 -683 -100 -1078 -338 -259 -155 -363 -188 -609 -188 -246 0 -343 30 -617
189 -373 217 -605 299 -942 331 -102 9 -311 11 -414 3z"/>
<path d="M2610 3189 c-333 -36 -594 -130 -944 -339 -229 -136 -315 -167 -493
-177 l-103 -6 0 -535 0 -535 128 7 c385 22 680 120 1072 359 108 66 212 115
296 139 71 20 100 23 279 23 279 0 345 -20 619 -184 168 -102 372 -200 496
-241 262 -85 587 -118 884 -90 336 32 602 126 960 340 253 151 315 170 561
177 273 8 375 -21 655 -186 267 -158 414 -223 624 -276 195 -49 293 -60 541
-60 251 0 368 15 567 69 208 58 356 127 671 315 199 118 321 147 582 138 232
-7 304 -31 580 -194 286 -168 456 -238 700 -288 122 -25 298 -45 393 -45 l52
0 0 534 0 533 -102 6 c-178 10 -269 42 -490 175 -267 160 -415 227 -618 281
-305 81 -675 92 -997 30 -232 -44 -449 -134 -719 -295 -289 -171 -383 -199
-659 -191 -241 7 -306 28 -567 180 -340 199 -540 277 -838 324 -149 24 -523
24 -676 0 -293 -46 -516 -133 -849 -332 -257 -152 -364 -181 -643 -172 -231 7
-303 30 -544 175 -73 44 -167 98 -208 120 -175 95 -416 175 -625 207 -120 19
-467 27 -585 14z"/>
</g>
</svg>
